HIERARCHY
ROOT hip
{
  OFFSET 0 0 0
  CHANNELS 6 Xposition Yposition Zposition Zrotation Yrotation Xrotation
  JOINT abdomen
  {
    OFFSET 0 20.6881 -0.73152
    CHANNELS 3 Zrotation Xrotation Yrotation
    JOINT chest
    {
      OFFSET 0 11.7043 -0.48768
      CHANNELS 3 Zrotation Xrotation Yrotation
      JOINT neck
      {
        OFFSET 0 22.1894 -2.19456
        CHANNELS 3 Zrotation Xrotation Yrotation
        JOINT head
        {
          OFFSET -0.24384 7.07133 1.2192
          CHANNELS 3 Zrotation Xrotation Yrotation
          JOINT leftEye
          {
            OFFSET 4.14528 8.04674 8.04672
            CHANNELS 3 Zrotation Xrotation Yrotation
            End Site
            {
              OFFSET 1 0 0
            }
          }
          JOINT rightEye
          {
            OFFSET -3.6576 8.04674 8.04672
            CHANNELS 3 Zrotation Xrotation Yrotation
            End Site
            {
              OFFSET 1 0 0
            }
          }
        }
      }
      JOINT rCollar
      {
        OFFSET -2.68224 19.2634 -4.8768
        CHANNELS 3 Zrotation Xrotation Yrotation
        JOINT rShldr
        {
          OFFSET -8.77824 -1.95073 1.46304
          CHANNELS 3 Zrotation Xrotation Yrotation
          JOINT rForeArm
          {
            OFFSET -28.1742 -1.7115 0.48768
            CHANNELS 3 Zrotation Xrotation Yrotation
            JOINT rHand
            {
              OFFSET -22.5879 0.773209 7.07136
              CHANNELS 3 Zrotation Xrotation Yrotation
              JOINT rThumb1
              {
                OFFSET -1.2192 -0.487915 3.41376
                CHANNELS 3 Zrotation Xrotation Yrotation
                JOINT rThumb2
                {
                  OFFSET -3.37035 -0.52449 3.41376
                  CHANNELS 3 Zrotation Xrotation Yrotation
                  End Site
                  {
                    OFFSET -1.78271 -1.18214 1.43049
                  }
                }
              }
              JOINT rIndex1
              {
                OFFSET -7.75947 0.938293 5.60832
                CHANNELS 3 Zrotation Xrotation Yrotation
                JOINT rIndex2
                {
                  OFFSET -2.54057 -0.884171 1.56538
                  CHANNELS 3 Zrotation Xrotation Yrotation
                  End Site
                  {
                    OFFSET -1.62519 -0.234802 1.16502
                  }
                }
              }
              JOINT rMid1
              {
                OFFSET -8.24714 1.18213 3.41376
                CHANNELS 3 Zrotation Xrotation Yrotation
                JOINT rMid2
                {
                  OFFSET -3.10165 -0.590103 1.0647
                  CHANNELS 3 Zrotation Xrotation Yrotation
                  End Site
                  {
                    OFFSET -2.48547 -0.328903 0.83742
                  }
                }
              }
              JOINT rRing1
              {
                OFFSET -8.82822 0.546677 1.51678
                CHANNELS 3 Zrotation Xrotation Yrotation
                JOINT rRing2
                {
                  OFFSET -2.60934 -0.819778 -0.0198488
                  CHANNELS 3 Zrotation Xrotation Yrotation
                  End Site
                  {
                    OFFSET -2.33842 -0.294052 0.168128
                  }
                }
              }
              JOINT rPinky1
              {
                OFFSET -8.27202 -0.0477905 -0.4584
                CHANNELS 3 Zrotation Xrotation Yrotation
                JOINT rPinky2
                {
                  OFFSET -1.82734 -0.647385 -0.700984
                  CHANNELS 3 Zrotation Xrotation Yrotation
                  End Site
                  {
                    OFFSET -1.69225 -0.51767 -0.607171
                  }
                }
              }
            }
          }
        }
      }
      JOINT lCollar
      {
        OFFSET 2.68224 19.2634 -4.8768
        CHANNELS 3 Zrotation Xrotation Yrotation
        JOINT lShldr
        {
          OFFSET 8.77824 -1.95073 1.46304
          CHANNELS 3 Zrotation Xrotation Yrotation
          JOINT lForeArm
          {
            OFFSET 28.1742 -1.7115 0.48768
            CHANNELS 3 Zrotation Xrotation Yrotation
            JOINT lHand
            {
              OFFSET 22.5879 0.773209 7.07136
              CHANNELS 3 Zrotation Xrotation Yrotation
              JOINT lThumb1
              {
                OFFSET 1.2192 -0.487915 3.41376
                CHANNELS 3 Zrotation Xrotation Yrotation
                JOINT lThumb2
                {
                  OFFSET 3.37035 -0.52449 3.41376
                  CHANNELS 3 Zrotation Xrotation Yrotation
                  End Site
                  {
                    OFFSET 1.78271 -1.18214 1.43049
                  }
                }
              }
              JOINT lIndex1
              {
                OFFSET 7.75947 0.938293 5.60832
                CHANNELS 3 Zrotation Xrotation Yrotation
                JOINT lIndex2
                {
                  OFFSET 2.54057 -0.884171 1.56538
                  CHANNELS 3 Zrotation Xrotation Yrotation
                  End Site
                  {
                    OFFSET 1.62519 -0.234802 1.16502
                  }
                }
              }
              JOINT lMid1
              {
                OFFSET 8.24714 1.18213 3.41376
                CHANNELS 3 Zrotation Xrotation Yrotation
                JOINT lMid2
                {
                  OFFSET 3.10165 -0.590103 1.0647
                  CHANNELS 3 Zrotation Xrotation Yrotation
                  End Site
                  {
                    OFFSET 2.48547 -0.328903 0.83742
                  }
                }
              }
              JOINT lRing1
              {
                OFFSET 8.82822 0.546677 1.51678
                CHANNELS 3 Zrotation Xrotation Yrotation
                JOINT lRing2
                {
                  OFFSET 2.60934 -0.819778 -0.0198488
                  CHANNELS 3 Zrotation Xrotation Yrotation
                  End Site
                  {
                    OFFSET 2.33842 -0.294052 0.168128
                  }
                }
              }
              JOINT lPinky1
              {
                OFFSET 8.27202 -0.0477905 -0.4584
                CHANNELS 3 Zrotation Xrotation Yrotation
                JOINT lPinky2
                {
                  OFFSET 1.82734 -0.647385 -0.700984
                  CHANNELS 3 Zrotation Xrotation Yrotation
                  End Site
                  {
                    OFFSET 1.69225 -0.51767 -0.607171
                  }
                }
              }
            }
          }
        }
      }
    }
  }
  JOINT rButtock
  {
    OFFSET -8.77824 4.35084 1.2192
    CHANNELS 3 Zrotation Xrotation Yrotation
    JOINT rThigh
    {
      OFFSET 0 -1.70687 -2.19456
      CHANNELS 3 Zrotation Xrotation Yrotation
      JOINT rShin
      {
        OFFSET 0 -36.8199 0.73152
        CHANNELS 3 Zrotation Xrotation Yrotation
        JOINT rFoot
        {
          OFFSET 0.73152 -45.1104 -5.12064
          CHANNELS 3 Zrotation Xrotation Yrotation
          End Site
          {
            OFFSET -1.1221 -3.69964 12.103
          }
        }
      }
    }
  }
  JOINT lButtock
  {
    OFFSET 8.77824 4.35084 1.2192
    CHANNELS 3 Zrotation Xrotation Yrotation
    JOINT lThigh
    {
      OFFSET 0 -1.70687 -2.19456
      CHANNELS 3 Zrotation Xrotation Yrotation
      JOINT lShin
      {
        OFFSET 0 -36.8199 0.73152
        CHANNELS 3 Zrotation Xrotation Yrotation
        JOINT lFoot
        {
          OFFSET -0.73152 -45.1104 -5.12064
          CHANNELS 3 Zrotation Xrotation Yrotation
          End Site
          {
            OFFSET 1.1221 -3.69964 12.103
          }
        }
      }
    }
  }
}
MOTION
Frames:	8
Frame Time:	0.00833333
97.314 85.1388 134.004 0.0 0.0 0.0 0.410589 -0.00336423 0.0117806 0.113459 -0.00539519 0.0196593 1.14248e-15 0.0 -3.10601e-17 3.41661e-15 3.18055e-15 -1.0871e-16 -0.0 0.0 0.0 -0.0 0.0 0.0 6.9452e-16 1.33947e-17 1.49089e-16 1.34879e-14 2.67117e-16 1.98785e-16 2.14787e-13 -5.04913e-14 6.36111e-15 2.43801e-12 1.21408e-13 -1.01778e-13 5.75245e-12 1.48241e-13 -2.22639e-13 9.93009e-12 2.51264e-13 -3.83257e-13 5.75561e-12 1.50281e-13 -2.3218e-13 7.73091 5.47488 0.417314 5.75258e-12 1.48194e-13 -2.16278e-13 2.90554 0.965183 0.102902 5.75879e-12 1.48691e-13 -2.21049e-13 10.2786 0.731801 0.0259123 5.74945e-12 1.49884e-13 -2.09917e-13 2.22167 -0.733487 -0.20892 4.98226e-16 1.37829e-17 -1.98785e-16 1.11736e-14 5.46658e-16 -9.93923e-16 2.11755e-13 7.51406e-14 -1.90833e-14 2.43896e-12 -9.88954e-15 -7.63333e-14 5.75509e-12 1.34566e-13 -2.22639e-13 9.944e-12 2.3218e-13 -3.84052e-13 5.74925e-12 1.36366e-13 -2.06736e-13 -7.73091 5.47488 -0.417314 5.75616e-12 1.34677e-13 -2.22639e-13 -2.90554 0.965183 -0.102902 5.74436e-12 1.34478e-13 -2.23434e-13 -10.2786 0.731801 -0.0259123 5.76277e-12 1.36764e-13 -2.3218e-13 -2.22167 -0.733487 0.20892 -2.03217e-16 0.0 -3.88251e-19 0.770613 -4.17183 -0.0656819 -0.00265493 2.00555 -0.0182708 -0.461839 2.16687 0.0961021 2.03217e-16 0.0 3.88251e-19 -0.143226 -2.55995 0.0260683 0.00716314 -0.91409 0.0621713 0.453765 3.47457 -0.121224
97.7121 83.4527 128.034 178.553 -0.5245 -154.737 -1.60207 -8.97748 -0.258729 1.19904 3.93104 -0.19044 -0.122078 2.89253 -0.696074 1.51505 -3.95539 -1.40388 -0.0 0.0 0.0 -0.0 0.0 0.0 6.15656e-15 2.39002e-14 1.21659e-14 22.7372 2.68265 -0.335865 -5.06427 -2.4986 7.68371 0.000300941 0.386276 0.0542832 -1.79599e-10 3.77396e-10 -2.60977e-10 -3.11365e-10 6.52725e-10 -4.50945e-10 -1.79596e-10 3.77397e-10 -2.60989e-10 7.73091 5.47488 0.417314 -1.79599e-10 3.77396e-10 -2.60973e-10 2.90554 0.965183 0.102902 -1.79591e-10 3.77396e-10 -2.60978e-10 10.2786 0.731801 0.0259123 -1.79602e-10 3.77396e-10 -2.60969e-10 2.22167 -0.733487 -0.20892 5.89981e-15 2.39015e-14 1.18735e-14 -21.1718 7.68971 -1.91991 3.33499 -1.37381 -5.3525 -9.10459e-05 0.211921 -0.0297829 -2.07731e-10 2.23332e-11 3.44251e-10 -3.58082e-10 3.89945e-11 5.95756e-10 -2.07736e-10 2.23339e-11 3.44263e-10 -7.73091 5.47488 -0.417314 -2.07729e-10 2.23329e-11 3.44249e-10 -2.90554 0.965183 -0.102902 -2.07739e-10 2.23331e-11 3.44251e-10 -10.2786 0.731801 -0.0259123 -2.07724e-10 2.23352e-11 3.44242e-10 -2.22167 -0.733487 0.20892 -2.03217e-16 0.0 -3.88251e-19 0.721021 -10.8907 1.64115 -0.000374717 3.8992 0.0270688 -0.494667 -2.16395 -0.320706 2.03217e-16 0.0 3.88251e-19 -0.686163 -9.37938 -2.19163 0.00693292 1.27406 0.0258719 0.46189 1.78224 -0.0261499
97.7066 83.4542 128.053 178.524 -0.3874 -154.645 -3.8183 -18.4633 -0.563333 2.376 8.09183 -0.414905 -0.172308 5.94849 -1.43767 2.90611 -8.11968 -2.91155 -0.0 0.0 0.0 -0.0 0.0 0.0 1.18987e-14 5.09922e-14 2.51866e-14 46.8111 5.51739 -0.697298 -9.69809 -4.99178 15.8559 -0.000180094 0.798511 0.112223 -3.82308e-10 7.7796e-10 -5.48402e-10 -6.62751e-10 1.34549e-09 -9.47616e-10 -3.82306e-10 7.7796e-10 -5.48417e-10 7.73091 5.47488 0.417314 -3.82309e-10 7.7796e-10 -5.48401e-10 2.90554 0.965183 0.102902 -3.82299e-10 7.77959e-10 -5.48407e-10 10.2786 0.731801 0.0259123 -3.82312e-10 7.77959e-10 -5.48398e-10 2.22167 -0.733487 -0.20892 1.15711e-14 5.09944e-14 2.49537e-14 -42.9754 15.7869 -4.06167 6.58062 -2.78482 -11.0172 5.21369e-05 0.434722 -0.061096 -4.45895e-10 3.69324e-11 7.18225e-10 -7.68693e-10 6.46112e-11 1.24297e-09 -4.459e-10 3.69322e-11 7.18234e-10 -7.73091 5.47488 -0.417314 -4.45892e-10 3.69319e-11 7.18222e-10 -2.90554 0.965183 -0.102902 -4.45901e-10 3.69325e-11 7.18226e-10 -10.2786 0.731801 -0.0259123 -4.45889e-10 3.69343e-11 7.18216e-10 -2.22167 -0.733487 0.20892 -2.03217e-16 0.0 -3.88251e-19 1.13087 -17.9682 3.56241 -0.00116799 5.89896 0.0751582 -0.597892 -6.74013 -0.764068 2.03217e-16 0.0 3.88251e-19 -1.85089 -16.5482 -4.66632 0.00975521 3.58527 -0.012504 0.476822 -0.00485205 0.0770009
97.6621 83.4689 127.975 178.328 -0.9147 -154.995 -5.9076 -26.9232 -0.88631 3.45837 11.8033 -0.622456 -0.153365 8.67244 -2.10969 3.95348 -11.8374 -4.29307 -0.0 0.0 0.0 -0.0 0.0 0.0 1.70806e-14 7.16739e-14 3.61994e-14 68.3067 8.04685 -1.0165 -13.2303 -6.95773 23.2099 -0.00129335 1.15882 0.162879 -5.50302e-10 1.13189e-09 -7.82486e-10 -9.53955e-10 1.95767e-09 -1.35207e-09 -5.50299e-10 1.13189e-09 -7.82503e-10 7.73091 5.47488 0.417314 -5.50302e-10 1.13189e-09 -7.82487e-10 2.90554 0.965183 0.102902 -5.50291e-10 1.13189e-09 -7.82493e-10 10.2786 0.731801 0.0259123 -5.50305e-10 1.13189e-09 -7.82486e-10 2.22167 -0.733487 -0.20892 1.6703e-14 7.16769e-14 3.60181e-14 -61.8595 22.9609 -6.20091 9.24458 -3.97779 -16.0927 0.000387849 0.635764 -0.0893535 -6.34702e-10 6.67303e-11 1.0332e-09 -1.09413e-09 1.16519e-10 1.78804e-09 -6.34707e-10 6.67291e-11 1.0332e-09 -7.73091 5.47488 -0.417314 -6.34699e-10 6.67294e-11 1.03319e-09 -2.90554 0.965183 -0.102902 -6.34707e-10 6.67304e-11 1.0332e-09 -10.2786 0.731801 -0.0259123 -6.34697e-10 6.67321e-11 1.03319e-09 -2.22167 -0.733487 0.20892 -2.03217e-16 0.0 -3.88251e-19 1.92432 -24.2442 5.44748 -0.00487688 7.68651 0.118603 -0.751824 -10.8235 -1.17439 2.03217e-16 0.0 3.88251e-19 -3.47032 -22.8801 -7.10023 0.0148053 5.65036 -0.0469584 0.49497 -1.60243 0.163654
97.7461 83.457 128.063 178.709 -0.3516 -154.596 -7.48095 -32.8207 -1.17684 4.24205 14.3921 -0.776529 -0.112319 10.5713 -2.58734 4.56123 -14.4659 -5.28249 -0.0 0.0 0.0 -0.0 0.0 0.0 2.08622e-14 7.63304e-14 4.2192e-14 83.287 9.81426 -1.22142 -15.376 -8.12011 28.3661 -0.00236798 1.38934 0.195298 -6.31504e-10 1.36925e-09 -8.83215e-10 -1.0947e-09 2.3684e-09 -1.52598e-09 -6.31502e-10 1.36924e-09 -8.83234e-10 7.73091 5.47488 0.417314 -6.31504e-10 1.36924e-09 -8.83218e-10 2.90554 0.965183 0.102902 -6.31493e-10 1.36924e-09 -8.83224e-10 10.2786 0.731801 0.0259123 -6.31507e-10 1.36924e-09 -8.83218e-10 2.22167 -0.733487 -0.20892 2.04863e-14 7.63333e-14 4.2043e-14 -74.6408 27.9276 -7.92019 10.9848 -4.76167 -19.6617 0.000750847 0.78241 -0.109968 -7.00116e-10 1.34525e-10 1.20067e-09 -1.20664e-09 2.34156e-10 2.07776e-09 -7.00121e-10 1.34523e-10 1.20067e-09 -7.73091 5.47488 -0.417314 -7.00113e-10 1.34523e-10 1.20066e-09 -2.90554 0.965183 -0.102902 -7.0012e-10 1.34525e-10 1.20067e-09 -10.2786 0.731801 -0.0259123 -7.00112e-10 1.34527e-10 1.20066e-09 -2.22167 -0.733487 0.20892 -2.03217e-16 0.0 -3.88251e-19 2.72044 -28.5949 6.88764 -0.00950472 8.94358 0.149694 -0.898113 -13.6769 -1.48123 2.03217e-16 0.0 3.88251e-19 -4.99502 -27.2472 -9.00144 0.0195612 7.10015 -0.0712919 0.508514 -2.72625 0.209044
97.7222 83.4565 128.037 178.609 -0.5512 -154.712 -8.23199 -35.1271 -1.36281 4.58143 15.4094 -0.848986 -0.107024 11.3199 -2.78051 4.73544 -15.5882 -5.67357 -0.0 0.0 0.0 -0.0 0.0 0.0 2.19048e-14 4.42578e-14 3.75051e-14 89.1123 10.5106 -1.2546 -16.1359 -8.50701 30.3576 -0.00274876 1.44795 0.203542 -5.5461e-10 1.37669e-09 -7.37347e-10 -9.61406e-10 2.38186e-09 -1.2736e-09 -5.54609e-10 1.37669e-09 -7.37365e-10 7.73091 5.47488 0.417314 -5.54611e-10 1.37669e-09 -7.37352e-10 2.90554 0.965183 0.102902 -5.54601e-10 1.37669e-09 -7.37356e-10 10.2786 0.731801 0.0259123 -5.54613e-10 1.37669e-09 -7.37351e-10 2.22167 -0.733487 -0.20892 2.1618e-14 4.42593e-14 3.7361e-14 -79.5025 29.8954 -8.7309 11.6595 -5.06777 -21.1035 0.000971008 0.861921 -0.121145 -5.28136e-10 2.71122e-10 1.08956e-09 -9.09526e-10 4.70789e-10 1.88534e-09 -5.28142e-10 2.71119e-10 1.08956e-09 -7.73091 5.47488 -0.417314 -5.28135e-10 2.71119e-10 1.08955e-09 -2.90554 0.965183 -0.102902 -5.2814e-10 2.71121e-10 1.08956e-09 -10.2786 0.731801 -0.0259123 -5.28131e-10 2.71124e-10 1.08955e-09 -2.22167 -0.733487 0.20892 -2.03217e-16 0.0 -3.88251e-19 3.01158 -30.3067 7.43487 -0.0127932 9.45834 0.163184 -0.970683 -14.8116 -1.62497 2.03217e-16 0.0 3.88251e-19 -5.76664 -28.955 -9.85253 0.0211761 7.68522 -0.0811036 0.510408 -3.18747 0.199428
97.7044 83.4528 128.042 178.532 -0.6026 -154.692 -8.35683 -34.8694 -1.44757 4.59596 15.3043 -0.860539 -0.143696 11.248 -2.7661 4.64855 -15.6404 -5.62002 -0.0 0.0 0.0 -0.0 0.0 0.0 2.1028e-14 -1.33691e-14 2.53637e-14 88.3922 10.4422 -1.16376 -16.0228 -8.43865 30.07 -0.00251529 1.38328 0.194449 -3.66534e-10 1.22309e-09 -4.1819e-10 -6.35379e-10 2.11704e-09 -7.21673e-10 -3.66534e-10 1.22309e-09 -4.18207e-10 7.73091 5.47488 0.417314 -3.66535e-10 1.22309e-09 -4.18197e-10 2.90554 0.965183 0.102902 -3.66527e-10 1.22309e-09 -4.18199e-10 10.2786 0.731801 0.0259123 -3.66536e-10 1.22309e-09 -4.18195e-10 2.22167 -0.733487 -0.20892 2.08921e-14 -1.33701e-14 2.52053e-14 -78.8837 29.7472 -8.78397 11.6247 -5.06013 -21.02 0.00103852 0.893048 -0.125521 -1.89667e-10 4.5612e-10 7.82895e-10 -3.25131e-10 7.91136e-10 1.35447e-09 -1.89674e-10 4.56117e-10 7.82896e-10 -7.73091 5.47488 -0.417314 -1.89668e-10 4.56117e-10 7.82885e-10 -2.90554 0.965183 -0.102902 -1.89672e-10 4.56118e-10 7.82891e-10 -10.2786 0.731801 -0.0259123 -1.89661e-10 4.56124e-10 7.82882e-10 -2.22167 -0.733487 0.20892 -2.03217e-16 0.0 -3.88251e-19 2.81414 -30.1511 7.26599 -0.0144127 9.44288 0.163953 -0.974514 -14.7191 -1.64686 2.03217e-16 0.0 3.88251e-19 -5.8304 -28.7942 -9.85278 0.0199238 7.65277 -0.0804491 0.503079 -3.17538 0.1503
97.708 83.4515 128.058 178.454 -0.6029 -154.613 -8.20241 -33.5952 -1.47497 4.47561 14.7506 -0.845364 -0.200157 10.8453 -2.66527 4.47866 -15.2665 -5.37876 -0.0 0.0 0.0 -0.0 0.0 0.0 2.06291e-14 -5.83481e-14 1.60829e-14 85.0593 10.0759 -1.03259 -15.5615 -8.18906 28.8782 -0.0020071 1.25365 0.176218 -1.92524e-10 1.11179e-09 -1.2556e-10 -3.33717e-10 1.92528e-09 -2.15545e-10 -1.92526e-10 1.11179e-09 -1.25574e-10 7.73091 5.47488 0.417314 -1.92527e-10 1.11179e-09 -1.25568e-10 2.90554 0.965183 0.102902 -1.9252e-10 1.11179e-09 -1.25567e-10 10.2786 0.731801 0.0259123 -1.92526e-10 1.11179e-09 -1.25564e-10 2.22167 -0.733487 -0.20892 2.06449e-14 -5.83512e-14 1.59024e-14 -76.0889 28.7339 -8.51985 11.305 -4.92617 -20.3218 0.00100033 0.890394 -0.125147 1.11968e-10 6.35507e-10 5.13326e-10 1.95738e-10 1.1018e-09 8.87677e-10 1.11958e-10 6.35504e-10 5.13326e-10 -7.73091 5.47488 -0.417314 1.11964e-10 6.35503e-10 5.13314e-10 -2.90554 0.965183 -0.102902 1.1196e-10 6.35504e-10 5.13318e-10 -10.2786 0.731801 -0.0259123 1.11974e-10 6.35512e-10 5.1331e-10 -2.22167 -0.733487 0.20892 -2.03217e-16 0.0 -3.88251e-19 2.44727 -29.25 6.83122 -0.014942 9.21474 0.159346 -0.95043 -14.1334 -1.62198 2.03217e-16 0.0 3.88251e-19 -5.5886 -27.8942 -9.48889 0.017674 7.37865 -0.0756958 0.49203 -2.9729 0.0805578
